<svg xmlns="http://www.w3.org/2000/svg" width="18" height="18" viewBox="0 0 18 18">
  <path id="help_FILL0_wght500_GRAD0_opsz20" d="M96.853,198.378a1.163,1.163,0,1,0-.822-.341A1.12,1.12,0,0,0,96.853,198.378Zm-.887-3.512h1.785a3.333,3.333,0,0,1,.152-1.189,3.036,3.036,0,0,1,.7-.89,5.983,5.983,0,0,0,1.094-1.318,2.527,2.527,0,0,0,.307-1.237,2.73,2.73,0,0,0-.85-2.083,3.053,3.053,0,0,0-2.181-.8,3.438,3.438,0,0,0-2.081.647,3.388,3.388,0,0,0-1.243,1.736l1.613.658a2.1,2.1,0,0,1,.651-1,1.528,1.528,0,0,1,.987-.35,1.4,1.4,0,0,1,.962.34,1.145,1.145,0,0,1,.386.9,1.355,1.355,0,0,1-.348.905,8.221,8.221,0,0,1-.745.762,3.966,3.966,0,0,0-.985,1.213A4.951,4.951,0,0,0,95.966,194.866Zm.9,7a8.781,8.781,0,0,1-3.5-.7,9.03,9.03,0,0,1-4.8-4.8,9.079,9.079,0,0,1,0-7,9.06,9.06,0,0,1,4.8-4.789,9.079,9.079,0,0,1,7,0,9.092,9.092,0,0,1,4.789,4.789,9.079,9.079,0,0,1,0,7,9.061,9.061,0,0,1-4.789,4.8A8.756,8.756,0,0,1,96.869,201.869Zm0-1.9a7.056,7.056,0,1,0-5.028-2.067A6.844,6.844,0,0,0,96.869,199.964ZM96.869,192.869Z" transform="translate(-87.869 -183.869)" fill="#007bc7"/>
</svg>
