<svg xmlns="http://www.w3.org/2000/svg" width="18.5" height="10.318" viewBox="0 0 18.5 10.318">
  <path id="timeline_FILL0_wght400_GRAD0_opsz24" d="M2.636,15.818a1.575,1.575,0,0,1-1.155-.48,1.63,1.63,0,0,1,0-2.312,1.575,1.575,0,0,1,1.155-.48h.215a.523.523,0,0,1,.194.041L6.768,8.864a.524.524,0,0,1-.041-.195V8.455A1.635,1.635,0,0,1,9.52,7.3,1.578,1.578,0,0,1,10,8.455q0,.041-.041.409l2.086,2.086a.524.524,0,0,1,.195-.041h.429a.524.524,0,0,1,.195.041l2.9-2.9a.524.524,0,0,1-.041-.195V7.636A1.636,1.636,0,1,1,18.52,8.792a1.576,1.576,0,0,1-1.156.481h-.214a.524.524,0,0,1-.195-.041l-2.9,2.9a.524.524,0,0,1,.041.195v.214a1.636,1.636,0,0,1-3.273,0v-.214a.524.524,0,0,1,.041-.195L8.773,10.05a.524.524,0,0,1-.195.041H8.364q-.041,0-.409-.041L4.232,13.773a.524.524,0,0,1,.041.195v.214a1.576,1.576,0,0,1-.481,1.156A1.575,1.575,0,0,1,2.636,15.818Z" transform="translate(-0.75 -5.75)" fill="#007bc7" stroke="#007bc7" stroke-width="0.5"/>
</svg>
