<svg xmlns="http://www.w3.org/2000/svg" width="18.05" height="18.789" viewBox="0 0 18.05 18.789">
  <g id="notification-outline-badged" transform="translate(-1.395 -0.555)">
    <path id="Path_39126" data-name="Path 39126" d="M10,19.044a1.483,1.483,0,0,0,1.433-1.266H8.511A1.483,1.483,0,0,0,10,19.044Z" fill="#007bc7" stroke="#007bc7" stroke-width="0.6"/>
    <path id="Path_39127" data-name="Path 39127" d="M18.061,15.461a8,8,0,0,1-1.394-1.628,7.017,7.017,0,0,1-.75-2.672V8.417a6.067,6.067,0,0,0-.089-.994,4.133,4.133,0,0,1-1.244-.467,4.939,4.939,0,0,1,.222,1.467v2.744a7.911,7.911,0,0,0,.917,3.25,8.983,8.983,0,0,0,1.356,1.667H2.85a8.983,8.983,0,0,0,1.356-1.667,7.911,7.911,0,0,0,.917-3.25V8.417A4.889,4.889,0,0,1,10,3.506a4.783,4.783,0,0,1,2.644.8,4.161,4.161,0,0,1-.144-.973v-.35a5.878,5.878,0,0,0-1.844-.556v-.7a.741.741,0,1,0-1.483,0v.728A6.006,6.006,0,0,0,4.006,8.417v2.744a7.017,7.017,0,0,1-.75,2.672,8,8,0,0,1-1.372,1.628.556.556,0,0,0-.189.417v.756a.556.556,0,0,0,.556.556H17.695a.556.556,0,0,0,.556-.556v-.756a.556.556,0,0,0-.189-.417Z" fill="#007bc7" stroke="#007bc7" stroke-width="0.6"/>
    <path id="Path_39128" data-name="Path 39128" d="M19.444,3.333A2.778,2.778,0,1,1,16.667.555a2.778,2.778,0,0,1,2.777,2.778Z" fill="#007bc7"/>
  </g>
</svg>
