<svg xmlns="http://www.w3.org/2000/svg" width="18.735" height="23.334" viewBox="0 0 18.735 23.334">
  <g id="RX" transform="translate(49.757 0.252)">
    <g id="Group_175286" data-name="Group 175286" transform="translate(-49.509 0)">
      <path id="Union_15" data-name="Union 15" d="M13373.8,19565.832l-3.388-.006,4.252-5.893-4.031-5.637h.2l-1.074-1.6h-1.419v6.035H13365V19543h4.581a7.87,7.87,0,0,1,4.748,1.168,4.654,4.654,0,0,1,.771,6.016,5.006,5.006,0,0,1-2.161,1.7q2.8,4.187,4.062,6.033l2.416-3.613h3.388l-4.075,5.637,4.267,5.893h-3.393l-2.9-4.346-2.907,4.346v.006Zm-5.46-15.846h1.075a4.113,4.113,0,0,0,2.338-.531,1.88,1.88,0,0,0,.751-1.654,1.722,1.722,0,0,0-.767-1.592,4.655,4.655,0,0,0-2.386-.477h-1.012Z" transform="translate(-13365 -19543)" fill="#007bc7" stroke="#fff" stroke-width="0.5"/>
    </g>
  </g>
</svg>
