<svg xmlns="http://www.w3.org/2000/svg" width="18" height="18" viewBox="0 0 18 18">
  <path id="bx-test-tube" d="M11.184,3.168l-.711.711,9.382,9.382a3.912,3.912,0,0,1-5.532,5.532L4.94,9.411l-.711.711L3,8.893,9.954,1.939l1.229,1.229ZM8.418,10.43l2.089-2.09,1.229,1.229-2.089,2.09,1.229,1.23,2.055-1.949,1.208,1.221-2.034,1.958,1.23,1.23,2.089-2.09,1.23,1.228-2.089,2.09.987.987a2.226,2.226,0,0,0,3.073,0,2.175,2.175,0,0,0,0-3.074L9.243,5.109,6.17,8.182l2.247,2.249Z" transform="translate(-3 -1.939)" fill="#007bc7"/>
</svg>
