<svg xmlns="http://www.w3.org/2000/svg" width="17.75" height="17.748" viewBox="0 0 17.75 17.748">
  <path id="Subtraction_46" data-name="Subtraction 46" d="M18346.6,17810.75a1.339,1.339,0,0,1-.975-.445l-3.547-4.174,0-.006a1.612,1.612,0,0,1-.475-1.059l.018-.439.441-.02h.037a1.6,1.6,0,0,1,1.016.473l4.186,3.561a1.325,1.325,0,0,1,.447.936,1.169,1.169,0,0,1-.334.84A1.137,1.137,0,0,1,18346.6,17810.75Zm-9.588-4.408a6.327,6.327,0,1,1,4.807-2.221l-.324.385-.381.324A6.307,6.307,0,0,1,18337.016,17806.342Zm0-11.023a4.7,4.7,0,1,0,4.709,4.7A4.708,4.708,0,0,0,18337.016,17795.318Z" transform="translate(-18330.35 -17793.352)" fill="#007bc7" stroke="#007bc7" stroke-width="0.7"/>
</svg>
