<svg xmlns="http://www.w3.org/2000/svg" width="17.152" height="18.976" viewBox="0 0 17.152 18.976">
  <path id="share_FILL0_wght400_GRAD0_opsz40" d="M18.972,21.809a2.569,2.569,0,0,1-1.905-.785,2.6,2.6,0,0,1-.774-1.894,3.358,3.358,0,0,1,.023-.369,1.294,1.294,0,0,1,.092-.37L9.573,14.418a3.01,3.01,0,0,1-.866.6,2.415,2.415,0,0,1-1.028.231A2.681,2.681,0,0,1,5,12.571,2.681,2.681,0,0,1,7.679,9.892,2.554,2.554,0,0,1,8.7,10.1a2.994,2.994,0,0,1,.877.577l6.836-3.949a1,1,0,0,1-.092-.335,3.232,3.232,0,0,1-.023-.381,2.6,2.6,0,0,1,.774-1.894,2.69,2.69,0,0,1,3.8,0,2.581,2.581,0,0,1,.785,1.894,2.682,2.682,0,0,1-2.679,2.679,2.9,2.9,0,0,1-1.039-.185,2.411,2.411,0,0,1-.854-.554l-6.836,3.857a3.173,3.173,0,0,1,.081.381,2.472,2.472,0,0,1,.035.381,1.869,1.869,0,0,1-.035.346q-.034.185-.081.346l6.836,3.9a3.022,3.022,0,0,1,.842-.52,2.722,2.722,0,0,1,1.051-.2,2.678,2.678,0,0,1,1.894,4.573A2.581,2.581,0,0,1,18.972,21.809Zm0-14.666A1.1,1.1,0,0,0,20.1,6.012a1.1,1.1,0,0,0-1.132-1.132,1.136,1.136,0,0,0-.82.323,1.143,1.143,0,0,0,0,1.617A1.136,1.136,0,0,0,18.972,7.144ZM7.679,13.7a1.105,1.105,0,1,0-.808-.324A1.1,1.1,0,0,0,7.679,13.7Zm11.293,6.559a1.132,1.132,0,1,0,0-2.263,1.136,1.136,0,0,0-.82.323,1.143,1.143,0,0,0,0,1.617A1.136,1.136,0,0,0,18.972,20.262ZM18.972,6.012ZM7.679,12.571ZM18.972,19.13Z" transform="translate(-4.75 -3.083)" fill="#007bc7" stroke="#007bc7" stroke-width="0.5"/>
</svg>
