<svg xmlns="http://www.w3.org/2000/svg" width="18.5" height="14.9" viewBox="0 0 18.5 14.9">
  <path id="video_call_FILL0_wght400_GRAD0_opsz48" d="M10.57,18.8h1.35V15.83h2.97V14.48H11.92V11.51H10.57v2.97H7.6v1.35h2.97ZM5.35,22.4A1.384,1.384,0,0,1,4,21.05V9.35A1.384,1.384,0,0,1,5.35,8h11.7A1.384,1.384,0,0,1,18.4,9.35v4.837l3.6-3.6v9.225l-3.6-3.6V21.05a1.384,1.384,0,0,1-1.35,1.35Zm0-1.35h11.7V9.35H5.35Zm0,0v0Z" transform="translate(-3.75 -7.75)" fill="#007bc7" stroke="#007bc7" stroke-width="0.5"/>
</svg>
